<svg width="100%" viewBox="0 0 1835 1714" xmlns="http://www.w3.org/2000/svg">
<g stroke-width="4" fill="none" stroke-linecap="round" stroke-linejoin="round" stroke="#F59E0B">
<path d="M 365.95 466.56 C 365.55 466.51 361.79 463.96 360.53 463.39 C 348.62 458.00 332.38 449.50 318.43 443.03 Q 304.24 436.45 283.45 426.27 C 256.48 413.07 230.14 400.96 205.04 388.43 C 189.15 380.51 171.20 372.60 156.01 365.00 Q 140.91 357.44 119.28 347.38 Q 91.97 334.69 58.05 318.40 C 53.33 316.14 48.44 314.40 43.79 311.87 Q 40.38 310.02 33.18 306.80 Q 15.48 298.90 14.53 298.48 Q 13.19 297.87 12.73 297.44 A 0.29 0.29 0.0 0 0 12.24 297.67 Q 12.38 299.10 12.77 299.69 Q 15.65 304.04 16.28 305.30 Q 19.36 311.45 42.65 352.57 Q 60.35 383.83 66.02 393.82 C 78.14 415.15 89.64 436.23 102.31 458.06 C 107.39 466.83 112.32 476.33 117.22 484.61 C 126.43 500.14 135.29 516.36 144.38 532.33 Q 147.34 537.53 153.67 548.64 Q 155.98 552.71 157.19 554.35 A 6.72 6.55 89.5 0 0 158.63 555.80 Q 163.38 559.28 166.05 560.94 Q 204.54 584.87 285.89 634.95 Q 287.98 636.23 355.00 677.26 A 0.49 0.49 0.0 0 1 354.79 678.17 Q 353.65 678.28 352.20 677.86 C 338.50 673.94 317.38 669.55 304.01 666.24 C 289.05 662.55 262.75 656.83 246.66 652.82 Q 214.78 644.88 209.62 643.63 C 206.61 642.91 203.11 641.57 199.87 640.84 Q 164.43 632.94 139.73 626.77 Q 139.66 626.75 137.22 626.37 A 0.49 0.49 0.0 0 0 136.77 627.17 Q 146.64 638.45 161.17 656.88 Q 201.39 707.91 227.01 739.24 Q 237.48 752.05 255.33 774.60 Q 279.89 805.62 283.50 809.76 C 288.39 815.37 290.87 817.39 297.50 819.24 Q 325.64 827.13 368.60 838.24 C 389.76 843.72 415.89 851.09 438.06 856.71 Q 447.27 859.04 499.06 872.92 C 506.64 874.95 515.05 876.63 520.75 877.98 Q 522.32 878.36 524.29 879.57 A 0.28 0.27 59.8 0 1 524.16 880.08 Q 510.45 880.57 486.57 881.19 Q 471.00 881.59 378.00 885.30 Q 376.89 885.35 376.51 885.58 A 0.61 0.61 0.0 0 0 376.46 886.57 Q 411.78 915.03 420.56 921.86 C 427.87 927.55 433.02 932.30 440.08 937.85 C 454.31 949.04 468.43 960.96 481.54 971.33 C 507.02 991.48 534.56 1014.65 556.39 1032.87 C 570.44 1044.60 579.02 1051.19 594.00 1063.69 C 605.70 1073.46 619.16 1083.14 631.25 1093.04 Q 637.75 1098.35 649.30 1106.95 Q 650.57 1107.90 680.83 1129.93 C 684.30 1132.46 694.65 1140.08 698.13 1139.12 C 701.79 1138.12 704.77 1137.33 707.90 1136.07 Q 755.24 1117.02 818.23 1092.12 A 0.47 0.47 0.0 0 1 818.82 1092.77 L 744.04 1241.23 A 1.96 1.95 13.3 0 1 742.29 1242.31 L 254.18 1242.31 A 0.74 0.74 0.0 0 0 253.62 1243.53 Q 259.73 1250.56 275.27 1268.17 C 304.15 1300.91 336.46 1331.60 372.95 1357.59 Q 397.36 1374.98 400.98 1377.12 Q 425.68 1391.76 432.25 1395.28 Q 466.31 1413.55 503.77 1426.96 Q 522.48 1433.65 547.08 1440.44 Q 568.24 1446.28 591.57 1450.78 Q 603.20 1453.03 612.80 1453.45 C 641.94 1454.74 670.94 1454.98 702.50 1455.12 Q 715.36 1455.17 721.55 1454.89 A 5.83 5.76 27.9 0 0 724.24 1454.08 L 800.76 1408.81 A 0.82 0.82 0.0 0 1 801.95 1409.25 Q 803.17 1412.73 807.28 1422.67 Q 813.64 1438.03 826.73 1468.04 C 835.03 1487.08 841.52 1502.39 850.25 1521.95 A 2.97 2.95 8.4 0 0 851.02 1522.98 Q 852.21 1524.00 854.13 1524.91 Q 867.69 1531.38 874.93 1535.09 Q 905.03 1550.50 932.91 1563.82 Q 939.52 1566.98 943.75 1570.49 Q 951.80 1577.19 963.03 1587.39 A 0.85 0.84 -43.9 0 1 963.00 1588.67 L 915.57 1628.67 A 0.56 0.56 0.0 0 0 915.39 1629.24 L 931.29 1686.47 A 1.76 1.75 72.2 0 0 933.58 1687.65 Q 947.21 1682.67 963.65 1678.61 A 0.61 0.60 74.7 0 0 964.08 1677.84 L 952.55 1641.12 A 0.90 0.89 -40.4 0 1 952.61 1640.44 Q 953.32 1639.00 954.93 1637.67 Q 971.83 1623.62 987.37 1610.05 A 0.87 0.86 44.7 0 1 988.50 1610.05 L 1034.03 1649.32 A 2.01 2.00 -60.0 0 1 1034.61 1651.50 L 1018.41 1697.88 A 1.10 1.10 0.0 0 0 1019.24 1699.32 C 1021.06 1699.66 1021.81 1699.69 1023.30 1700.23 Q 1034.93 1704.49 1049.33 1708.95 A 0.35 0.34 -71.8 0 0 1049.76 1708.73 L 1073.48 1640.82 A 0.74 0.74 0.0 0 0 1073.30 1640.04 C 1068.91 1635.68 1065.17 1631.97 1060.20 1627.65 Q 1037.33 1607.80 1028.09 1599.48 C 1020.29 1592.45 1012.08 1586.38 1005.86 1580.80 C 992.15 1568.51 976.56 1555.89 964.48 1545.00 Q 963.02 1543.67 962.94 1540.51 Q 961.76 1492.35 961.53 1475.88 C 961.46 1470.78 960.85 1465.93 960.90 1461.37 A 0.27 0.27 0.0 0 1 961.39 1461.21 C 965.22 1466.58 967.62 1472.02 970.75 1476.90 C 976.13 1485.27 980.60 1493.19 986.51 1501.52 C 989.55 1505.80 992.49 1510.95 995.82 1515.61 C 996.92 1517.14 998.32 1518.06 1000.00 1518.50 Q 1032.96 1527.01 1068.80 1537.70 C 1078.71 1540.66 1085.06 1545.39 1096.30 1552.30 A 0.41 0.41 0.0 0 1 1096.37 1552.95 L 1062.23 1584.92 A 1.40 1.40 0.0 0 0 1062.12 1586.84 L 1081.46 1609.77 A 1.46 1.45 48.4 0 0 1083.57 1609.90 L 1123.33 1572.66 A 1.81 1.80 38.8 0 1 1125.49 1572.43 Q 1127.95 1573.88 1130.54 1575.76 Q 1143.54 1585.14 1151.16 1590.36 C 1157.30 1594.56 1163.98 1600.34 1169.59 1604.16 A 0.95 0.94 19.6 0 1 1170.00 1605.01 Q 1169.77 1608.19 1169.53 1609.00 C 1167.02 1617.29 1162.39 1628.73 1159.51 1637.90 Q 1157.37 1644.71 1155.15 1650.89 A 0.80 0.79 -70.8 0 0 1155.64 1651.91 L 1185.73 1662.42 A 0.78 0.78 0.0 0 0 1186.73 1661.93 L 1209.31 1592.42 A 0.82 0.81 27.0 0 0 1209.01 1591.50 Q 1156.25 1553.66 1131.92 1535.99 C 1122.74 1529.33 1110.84 1521.98 1102.65 1515.84 Q 1100.82 1514.47 1100.44 1512.55 Q 1096.71 1493.89 1093.80 1482.24 C 1092.08 1475.40 1091.23 1469.83 1089.11 1462.17 Q 1088.01 1458.23 1082.59 1434.26 Q 1079.39 1420.13 1076.15 1406.33 Q 1069.71 1378.85 1066.74 1364.48 C 1064.92 1355.71 1062.41 1346.50 1060.48 1337.52 Q 1060.29 1336.64 1059.48 1335.14 A 1.03 1.03 0.0 0 1 1059.87 1333.76 C 1079.30 1322.25 1106.25 1305.43 1127.51 1292.50 Q 1132.05 1289.74 1133.69 1287.68 Q 1139.20 1280.75 1148.45 1267.15 Q 1148.54 1267.01 1154.74 1258.03 Q 1163.21 1245.76 1182.98 1217.74 Q 1190.77 1206.71 1202.40 1193.66 Q 1209.21 1186.02 1218.54 1181.07 Q 1234.96 1172.36 1252.56 1167.61 Q 1256.98 1166.41 1261.00 1166.20 Q 1270.19 1165.70 1279.50 1165.97 Q 1301.29 1166.60 1327.64 1167.66 C 1333.03 1167.88 1336.75 1168.68 1341.25 1170.51 Q 1347.88 1173.19 1355.47 1177.53 Q 1374.81 1188.61 1384.39 1194.86 Q 1391.74 1199.65 1394.28 1201.96 C 1398.17 1205.47 1400.07 1211.34 1401.40 1216.33 Q 1404.75 1228.86 1405.96 1234.80 C 1407.74 1243.55 1410.66 1252.21 1411.84 1260.78 A 1.07 1.07 0.0 0 0 1413.62 1261.42 Q 1419.31 1256.19 1442.43 1234.68 C 1451.39 1226.35 1461.63 1215.00 1465.81 1203.57 Q 1466.96 1200.40 1470.16 1188.17 Q 1471.93 1181.34 1472.32 1174.09 Q 1472.96 1161.80 1472.83 1159.75 Q 1472.27 1150.85 1470.26 1140.24 Q 1469.16 1134.48 1465.07 1128.69 Q 1452.42 1110.77 1448.53 1105.56 C 1446.53 1102.89 1445.33 1099.90 1444.94 1096.86 Q 1441.35 1069.39 1439.71 1062.25 Q 1436.02 1046.24 1434.17 1040.57 C 1431.65 1032.88 1429.52 1026.58 1424.71 1021.54 Q 1419.31 1015.89 1413.74 1011.29 Q 1398.70 998.87 1387.42 990.85 Q 1383.23 987.87 1356.24 967.89 Q 1353.63 965.96 1347.12 961.53 C 1339.66 956.46 1330.71 950.41 1323.27 948.28 Q 1305.66 943.26 1281.26 938.53 Q 1269.12 936.18 1256.49 933.82 A 1.35 1.35 0.0 0 1 1255.52 931.92 Q 1262.74 916.48 1273.28 894.97 C 1293.52 853.68 1315.16 807.82 1331.80 773.79 Q 1333.12 771.09 1334.49 770.24 Q 1360.56 754.06 1411.18 721.70 Q 1455.88 693.13 1474.57 681.06 Q 1481.05 676.88 1486.44 671.19 Q 1495.27 661.87 1502.56 652.07 C 1519.76 629.00 1543.06 598.32 1561.12 573.35 Q 1575.03 554.13 1597.36 524.12 Q 1603.71 515.59 1616.04 498.78 C 1649.06 453.73 1678.81 413.45 1711.21 368.24 Q 1751.66 311.80 1790.20 258.68 Q 1793.65 253.92 1793.91 253.54 C 1797.82 247.73 1801.82 242.60 1806.29 235.91 A 0.36 0.36 0.0 0 0 1805.80 235.40 Q 1803.87 236.55 1802.59 237.25 Q 1788.77 244.84 1765.98 257.82 C 1728.21 279.33 1692.43 299.24 1651.83 322.35 Q 1645.13 326.16 1644.87 326.31 Q 1615.96 342.48 1583.04 361.31 C 1577.01 364.76 1573.49 370.05 1568.69 376.42 Q 1529.03 429.03 1522.02 438.52 Q 1505.77 460.53 1488.74 482.99 C 1484.54 488.53 1481.15 494.01 1476.77 499.20"/>
<path d="M 929.29 1524.65 Q 929.46 1524.00 929.43 1523.00 Q 929.27 1515.49 928.03 1422.75 Q 927.72 1399.19 928.05 1378.07 A 1.67 1.67 0.0 0 1 928.82 1376.70 Q 936.00 1372.17 948.51 1364.82 C 955.40 1360.77 961.69 1356.26 969.06 1351.98 Q 977.25 1347.23 984.47 1342.40 C 992.42 1337.08 999.80 1333.14 1008.47 1327.83 Q 1011.19 1326.16 1025.49 1317.55 C 1031.38 1314.00 1036.40 1310.20 1041.68 1307.44 C 1049.44 1303.37 1057.89 1297.13 1066.50 1292.31 Q 1071.47 1289.53 1079.09 1284.62 Q 1085.29 1280.62 1100.56 1270.96 C 1103.30 1269.22 1108.05 1267.26 1109.94 1264.69 C 1113.57 1259.74 1118.45 1253.27 1122.92 1246.73 Q 1140.12 1221.59 1158.00 1197.23 Q 1163.97 1189.10 1170.97 1180.92 A 0.83 0.83 0.0 0 0 1170.43 1179.56 Q 1169.25 1179.43 1167.30 1178.97 C 1153.29 1175.70 1138.34 1170.70 1123.44 1166.46 Q 1115.49 1164.20 1111.11 1162.85 Q 1103.85 1160.63 1098.77 1159.40 A 1.58 1.57 -81.0 0 1 1097.57 1157.74 C 1101.43 1111.62 1107.11 1059.19 1111.23 1010.50 Q 1111.79 1003.94 1112.01 998.79 A 1.26 1.25 -74.0 0 0 1111.37 997.63 C 1106.85 995.07 1102.09 991.87 1098.16 988.59 Q 1074.94 969.20 1069.97 964.52 Q 1068.20 962.84 1055.22 951.10 Q 1043.37 940.38 1042.43 939.45 C 1036.02 933.11 1027.92 924.87 1020.16 917.68 Q 1012.20 910.30 982.30 881.19 Q 970.81 870.00 963.05 861.97 Q 957.60 856.34 954.73 852.10 C 947.79 841.85 942.43 830.54 936.01 819.81 Q 921.11 794.88 912.85 780.42 Q 900.80 759.35 893.55 747.46 C 888.99 739.98 883.12 729.08 879.08 722.16 Q 875.29 715.66 848.83 671.36 C 847.16 668.57 845.57 665.18 843.98 662.50 Q 833.23 644.34 821.75 624.26 Q 820.30 621.72 818.36 620.39 Q 801.77 608.99 728.85 559.07 C 694.91 535.85 666.28 515.48 634.89 494.23 Q 622.48 485.83 603.39 472.40 Q 586.97 460.84 572.00 450.45 Q 492.33 395.12 415.05 341.74 Q 404.48 334.44 388.52 323.28 Q 369.61 310.07 355.67 300.33 Q 321.20 276.23 288.54 253.66 C 274.85 244.20 258.31 232.26 246.77 224.49 C 237.54 218.27 230.77 213.29 223.74 208.59 Q 212.45 201.05 207.56 197.48 Q 199.99 191.97 191.44 186.20 Q 170.27 171.91 161.93 166.03 Q 159.76 164.51 152.55 159.47 Q 137.46 148.94 116.00 134.80 C 115.15 134.24 114.47 133.11 113.82 132.83 A 0.31 0.31 0.0 0 0 113.41 133.22 Q 123.61 159.77 134.63 186.38 C 139.63 198.47 145.84 215.68 151.45 229.65 Q 157.76 245.33 176.06 290.25 A 4.58 4.51 -82.2 0 0 177.44 292.10 Q 183.62 296.97 190.81 301.71 C 192.52 302.83 194.45 304.54 196.53 306.00 Q 263.34 352.88 336.46 405.75 C 343.45 410.81 351.12 415.98 357.05 420.27 C 376.63 434.46 392.18 445.36 412.62 459.98 Q 447.92 485.22 458.47 492.60 Q 471.50 501.72 480.25 507.78 Q 490.84 515.11 501.93 523.14 Q 528.57 542.45 550.55 557.45 Q 554.65 560.26 556.20 562.79 Q 572.92 590.20 589.90 619.77 Q 599.92 637.20 605.78 647.13 C 620.50 672.10 634.35 696.74 645.53 715.52 Q 658.92 738.02 669.01 755.61 Q 677.39 770.21 686.84 784.37 Q 701.13 805.81 728.68 846.06 Q 767.40 902.63 797.75 945.20 Q 805.34 955.83 813.21 967.61 C 824.71 984.85 834.44 998.11 846.51 1015.95 Q 852.86 1025.32 864.79 1041.75 Q 868.90 1047.41 873.56 1054.80 A 0.94 0.93 -45.8 0 1 873.57 1055.77 C 872.08 1058.30 871.27 1061.25 869.96 1063.84 Q 865.45 1072.75 845.04 1113.75 C 840.66 1122.53 834.71 1133.62 829.78 1143.67 Q 824.42 1154.60 818.50 1166.21 Q 807.10 1188.58 792.31 1218.10 C 783.78 1235.12 775.20 1252.54 765.58 1271.10 Q 763.92 1274.29 763.64 1274.57 A 2.07 2.05 -66.9 0 1 762.21 1275.15 L 660.67 1275.22 A 0.74 0.74 0.0 0 0 660.03 1276.33 C 662.86 1281.26 664.45 1286.57 667.41 1291.28 Q 672.04 1298.63 675.50 1303.37 C 681.62 1311.76 688.80 1318.22 698.59 1324.21 Q 714.98 1334.26 729.88 1340.36 Q 749.08 1348.24 763.97 1354.24 Q 782.21 1361.60 791.40 1364.10 Q 801.09 1366.74 813.71 1369.80 C 815.73 1370.30 817.82 1370.29 819.32 1371.47 A 2.08 2.04 4.6 0 1 819.84 1372.07 Q 829.88 1389.32 841.20 1417.83 Q 846.80 1431.94 866.28 1476.26 C 869.64 1483.92 872.31 1490.83 875.41 1497.92 A 3.11 3.07 -78.3 0 0 875.98 1498.80 Q 877.34 1500.28 878.63 1500.91 Q 914.54 1518.52 928.48 1525.04 A 0.58 0.58 0.0 0 0 929.29 1524.65"/>
<path d="M 1692.13 337.00 C 1673.94 347.49 1655.77 356.99 1640.95 365.71 Q 1636.48 368.33 1614.35 380.38 C 1610.90 382.27 1608.12 384.27 1604.89 385.86 C 1601.20 387.69 1597.27 390.56 1595.06 393.56 Q 1585.24 406.91 1558.69 442.99 Q 1548.66 456.63 1529.48 481.78 C 1510.12 507.18 1489.64 535.66 1468.78 562.82 Q 1458.19 576.62 1443.72 596.11 Q 1422.91 624.13 1418.67 629.43 Q 1412.00 637.77 1407.26 640.28 Q 1376.47 656.62 1368.46 660.71 Q 1292.07 699.68 1217.12 738.16 C 1194.01 750.02 1162.74 766.99 1143.50 776.50 Q 1134.77 780.81 1128.67 789.44 Q 1101.12 828.44 1096.26 835.55 Q 1094.25 838.48 1071.03 871.48 Q 1061.57 884.92 1057.10 891.85 Q 1056.15 893.32 1055.49 894.78 A 0.82 0.81 17.7 0 0 1056.08 895.91 L 1219.92 926.96 A 0.97 0.96 -67.3 0 0 1220.90 926.55 C 1223.22 923.20 1224.64 919.34 1226.38 915.91 Q 1240.16 888.66 1242.66 883.39 Q 1265.93 834.25 1273.04 820.00 Q 1280.96 804.13 1281.07 803.90 Q 1294.77 775.66 1296.54 772.29 Q 1300.26 765.19 1302.38 760.62 C 1305.57 753.76 1309.62 747.15 1316.22 743.21 Q 1338.14 730.13 1359.99 715.93 C 1363.76 713.48 1368.76 710.65 1372.80 708.05 Q 1418.78 678.44 1442.92 663.40 C 1452.48 657.44 1462.45 650.75 1469.51 641.02 Q 1479.98 626.62 1493.92 608.26 Q 1506.62 591.54 1518.41 575.60 Q 1563.13 515.12 1567.86 508.71 C 1577.99 494.99 1586.60 482.15 1596.59 469.11 C 1605.40 457.63 1617.14 440.50 1628.52 426.02 C 1631.38 422.37 1634.37 417.58 1637.51 413.34 Q 1664.92 376.37 1692.58 337.49 A 0.34 0.34 0.0 0 0 1692.13 337.00"/>
<path d="M 89.68 368.32 A 0.28 0.28 0.0 0 0 89.45 368.74 Q 94.49 377.05 98.77 384.96 Q 111.03 407.58 124.80 431.17 Q 128.99 438.33 145.80 468.81 Q 155.20 485.85 163.81 500.43 Q 179.57 527.12 182.02 531.83 Q 183.13 533.96 186.19 535.72 Q 197.65 542.33 208.06 549.12 C 215.94 554.27 220.93 557.02 230.01 562.81 Q 240.55 569.52 246.40 573.11 Q 345.42 633.89 446.85 697.15 Q 454.02 701.63 456.95 702.34 Q 460.59 703.22 532.26 720.68 C 544.17 723.58 556.37 726.55 569.62 729.64 C 584.20 733.05 597.92 736.70 614.02 740.50 C 617.32 741.28 620.69 742.46 624.18 743.34 A 0.77 0.77 0.0 0 0 625.03 742.21 Q 603.75 705.24 586.24 675.25 Q 578.83 662.56 574.49 655.37 C 560.00 631.36 546.48 606.61 531.19 582.92 C 530.20 581.39 528.86 580.02 527.41 579.31 Q 506.03 568.86 489.67 560.66 Q 484.40 558.01 477.42 554.86 C 467.07 550.18 455.52 543.94 446.97 539.93 Q 426.18 530.18 395.61 515.15 Q 389.44 512.12 361.29 498.77 C 334.10 485.88 307.92 472.72 280.09 459.64 C 249.43 445.21 213.53 427.41 178.87 410.93 Q 125.06 385.35 90.95 368.63 Q 90.28 368.30 89.68 368.32"/>
<path d="M 1172.39 728.72 L 1386.53 617.56 A 3.95 3.95 0.0 0 0 1388.50 615.21 C 1389.30 612.61 1390.84 609.88 1391.75 607.94 Q 1406.62 576.31 1420.77 545.37 C 1431.85 521.17 1445.26 494.52 1454.94 471.91 Q 1455.34 470.96 1455.36 470.18 A 0.32 0.31 -15.4 0 0 1454.88 469.91 Q 1451.60 471.89 1441.77 478.52 Q 1398.35 507.84 1390.19 513.71 Q 1380.06 521.00 1374.46 525.00 Q 1351.92 541.10 1316.40 567.84 Q 1299.80 580.34 1287.04 591.76 Q 1266.48 610.15 1249.78 626.28 C 1234.52 641.02 1223.40 652.72 1212.98 668.24 Q 1194.69 695.47 1179.05 717.58 C 1176.54 721.13 1174.58 724.55 1172.00 728.27 A 0.31 0.31 0.0 0 0 1172.39 728.72"/>
<path d="M 220.34 678.12 A 0.13 0.13 0.0 0 0 220.21 678.32 C 234.29 696.34 251.78 717.54 265.39 734.59 Q 297.98 775.43 306.44 785.64 Q 309.48 789.31 314.86 790.68 Q 332.49 795.19 358.22 802.30 C 404.26 815.02 443.03 825.08 488.58 837.42 Q 514.78 844.51 540.09 851.23 C 576.23 860.82 601.66 867.42 622.90 873.80 Q 630.33 876.04 632.77 876.09 Q 638.86 876.22 648.26 875.98 C 671.81 875.38 692.29 874.93 711.27 874.10 A 0.94 0.93 72.1 0 0 712.01 872.65 Q 688.91 837.93 669.57 810.00 C 662.86 800.31 657.98 792.27 651.77 782.72 A 4.61 4.60 80.2 0 0 648.99 780.75 Q 618.71 773.50 602.46 769.51 C 561.15 759.35 532.42 752.99 485.15 741.61 C 447.59 732.57 375.26 715.94 339.76 707.22 C 299.11 697.25 274.02 691.45 245.66 684.21 Q 238.98 682.50 220.34 678.12"/>
<path d="M 463.18 913.66 A 0.37 0.37 0.0 0 0 462.96 914.32 C 481.50 928.99 494.75 940.57 513.50 955.12 Q 526.49 965.20 544.64 980.52 C 554.11 988.52 564.57 996.92 571.61 1002.96 Q 584.39 1013.93 591.70 1019.88 Q 644.38 1062.79 700.37 1103.77 A 1.13 1.13 0.0 0 0 701.47 1103.91 L 836.59 1050.38 A 0.55 0.54 -28.8 0 0 836.83 1049.56 C 828.84 1038.15 821.26 1028.20 813.81 1017.46 C 801.65 999.95 788.73 982.69 776.98 965.68 Q 766.43 950.39 756.04 936.08 C 748.99 926.38 743.00 917.38 735.30 906.45 A 2.05 2.05 0.0 0 0 733.55 905.58 L 463.18 913.66"/>
<path d="M 1303.98 1034.80 Q 1310.20 1037.52 1317.34 1041.16 Q 1334.40 1049.87 1350.12 1057.66 Q 1355.81 1060.47 1359.88 1063.14 C 1367.33 1068.00 1373.69 1071.31 1381.62 1076.62 Q 1387.43 1080.51 1393.02 1081.99 Q 1403.08 1084.66 1410.02 1086.97 A 0.59 0.59 0.0 0 0 1410.79 1086.31 C 1408.54 1073.44 1407.15 1062.88 1403.33 1052.08 Q 1400.97 1045.38 1397.74 1041.50 C 1391.91 1034.50 1384.52 1028.68 1378.05 1023.95 Q 1348.63 1002.43 1332.71 991.04 Q 1323.13 984.19 1318.32 981.45 Q 1313.81 978.87 1310.18 978.02 C 1298.82 975.35 1279.41 971.94 1263.05 968.62 C 1239.01 963.75 1215.05 959.43 1192.85 955.05 C 1168.19 950.19 1146.76 946.52 1122.24 941.57 Q 1111.79 939.46 1087.92 935.20 A 0.61 0.61 0.0 0 0 1087.40 936.26 Q 1111.35 957.98 1134.17 977.57 Q 1135.71 978.89 1135.27 980.76 C 1134.71 983.11 1133.62 987.18 1133.47 990.80 Q 1133.42 991.87 1132.49 1009.13 C 1132.10 1016.49 1131.26 1022.00 1130.66 1030.50 Q 1130.28 1035.98 1129.19 1046.49 C 1125.58 1081.37 1123.48 1106.64 1120.01 1143.17 A 0.78 0.78 0.0 0 0 1120.57 1143.99 L 1184.81 1162.41 A 4.12 4.09 -47.2 0 0 1187.44 1162.30 Q 1191.07 1160.92 1193.53 1158.94 C 1198.62 1154.82 1204.29 1151.87 1210.40 1149.18 Q 1226.50 1142.09 1239.93 1137.74 C 1246.80 1135.51 1256.01 1133.49 1262.03 1133.39 Q 1285.80 1132.98 1317.72 1134.27 C 1332.87 1134.88 1342.21 1135.29 1353.98 1140.76 Q 1376.35 1151.16 1396.30 1163.20 Q 1413.75 1173.75 1426.75 1188.25 Q 1429.59 1191.42 1432.09 1196.04 A 0.56 0.56 0.0 0 0 1433.09 1196.00 Q 1439.32 1181.84 1439.96 1165.63 C 1440.28 1157.40 1438.90 1150.53 1435.23 1144.07 Q 1433.13 1140.39 1419.55 1122.68 C 1415.82 1117.81 1412.93 1114.74 1407.63 1113.42 C 1397.84 1110.99 1388.09 1110.83 1378.89 1110.34 Q 1375.28 1110.15 1370.75 1109.12 C 1363.43 1107.45 1356.25 1106.03 1349.31 1102.94 Q 1342.06 1099.72 1340.05 1097.66 Q 1334.03 1091.51 1332.63 1082.37 Q 1331.12 1072.56 1331.01 1064.00 Q 1330.98 1061.71 1329.40 1060.11 Q 1316.31 1046.90 1303.67 1035.27 A 0.29 0.28 -11.7 0 1 1303.98 1034.80"/>
</g>
</svg>
